<svg width="34" height="34" viewBox="0 0 34 34" fill="none" xmlns="http://www.w3.org/2000/svg">
<path d="M17.0005 19.3067C15.9171 19.3067 15.0105 18.9187 14.2806 18.1426C13.5507 17.3665 13.1858 16.4241 13.1858 15.3154V6.46814C13.1858 5.42319 13.5566 4.53215 14.2983 3.79503C15.0399 3.05792 15.9404 2.68936 16.9999 2.68936C18.0594 2.68936 18.9614 3.05792 19.7059 3.79503C20.4505 4.53215 20.8227 5.42319 20.8227 6.46814V15.3154C20.8227 16.4241 20.4565 17.3665 19.7241 18.1426C18.9918 18.9187 18.0839 19.3067 17.0005 19.3067ZM16.9956 30.1396C16.6669 30.1396 16.3929 30.028 16.1735 29.8049C15.9541 29.5818 15.8444 29.3053 15.8444 28.9755V25.2975C13.474 25.0378 11.4514 24.0927 9.77654 22.4622C8.10171 20.8318 7.12314 18.8696 6.84082 16.5758C6.7936 16.2406 6.8906 15.9467 7.13184 15.6942C7.3731 15.4417 7.67877 15.3154 8.04885 15.3154C8.30741 15.3154 8.54272 15.4141 8.75477 15.6115C8.96682 15.8088 9.09928 16.0486 9.15215 16.3309C9.42316 18.266 10.2996 19.8722 11.7815 21.1495C13.2633 22.4268 15.0012 23.0655 16.995 23.0655C18.9887 23.0655 20.7283 22.4268 22.2135 21.1495C23.6988 19.8722 24.5769 18.266 24.8479 16.3309C24.9064 16.0427 25.0421 15.8014 25.2553 15.607C25.4683 15.4126 25.7101 15.3154 25.9806 15.3154C26.351 15.3154 26.6519 15.4417 26.8831 15.6942C27.1144 15.9467 27.2064 16.2406 27.1592 16.5758C26.8769 18.8696 25.8983 20.8318 24.2235 22.4622C22.5486 24.0927 20.526 25.0378 18.1557 25.2975V28.9755C18.1557 29.3053 18.0445 29.5818 17.8221 29.8049C17.5998 30.028 17.3243 30.1396 16.9956 30.1396ZM17.0009 16.8937C17.4118 16.8937 17.7479 16.7392 18.0093 16.4302C18.2706 16.1212 18.4013 15.7496 18.4013 15.3154V6.46928C18.4013 6.08635 18.2658 5.76279 17.9948 5.49858C17.7239 5.23439 17.3922 5.1023 17 5.1023C16.6078 5.1023 16.2762 5.23439 16.0052 5.49858C15.7342 5.76279 15.5988 6.08635 15.5988 6.46928V15.3154C15.5988 15.7496 15.7297 16.1212 15.9917 16.4302C16.2536 16.7392 16.59 16.8937 17.0009 16.8937Z" fill="#5F5AC9"/>
</svg>
