<svg width="20" height="20" viewBox="0 0 30 30" fill="none" xmlns="http://www.w3.org/2000/svg">
<path d="M15 16.4918L8.52719 22.9647C8.31477 23.1771 8.06613 23.2833 7.78125 23.2833C7.49638 23.2833 7.24773 23.1771 7.03531 22.9647C6.82292 22.7523 6.71672 22.5036 6.71672 22.2187C6.71672 21.9339 6.82292 21.6852 7.03531 21.4728L13.5082 15L7.03531 8.52717C6.82292 8.31476 6.71672 8.06611 6.71672 7.78124C6.71672 7.49636 6.82292 7.24772 7.03531 7.0353C7.24773 6.8229 7.49638 6.71671 7.78125 6.71671C8.06613 6.71671 8.31477 6.8229 8.52719 7.0353L15 13.5081L21.4728 7.0353C21.6852 6.8229 21.9339 6.71671 22.2188 6.71671C22.5036 6.71671 22.7523 6.8229 22.9647 7.0353C23.1771 7.24772 23.2833 7.49636 23.2833 7.78124C23.2833 8.06611 23.1771 8.31476 22.9647 8.52717L16.4918 15L22.9647 21.4728C23.1771 21.6852 23.2833 21.9339 23.2833 22.2187C23.2833 22.5036 23.1771 22.7523 22.9647 22.9647C22.7523 23.1771 22.5036 23.2833 22.2188 23.2833C21.9339 23.2833 21.6852 23.1771 21.4728 22.9647L15 16.4918Z" fill="#8F8F8F"/>
</svg>
