<svg width="26" height="26" viewBox="0 0 26 26" fill="none" xmlns="http://www.w3.org/2000/svg">
<path d="M12.9865 18.7958C14.2955 18.7958 15.3924 18.3535 16.2771 17.4687C17.1618 16.584 17.6042 15.4871 17.6042 14.1781C17.6042 12.8691 17.1618 11.7767 16.2771 10.901C15.3924 10.0253 14.2955 9.58749 12.9865 9.58749C11.6774 9.58749 10.5851 10.0253 9.70937 10.901C8.83368 11.7767 8.39583 12.8691 8.39583 14.1781C8.39583 15.4871 8.83368 16.584 9.70937 17.4687C10.5851 18.3535 11.6774 18.7958 12.9865 18.7958ZM3.84995 22.9119C3.35163 22.9119 2.91952 22.729 2.5536 22.3631C2.18771 21.9971 2.00476 21.565 2.00476 21.0667V7.28953C2.00476 6.8075 2.18771 6.37838 2.5536 6.00218C2.91952 5.62595 3.35163 5.43784 3.84995 5.43784H7.73405L9.22363 3.65034C9.38967 3.43015 9.59665 3.26844 9.84457 3.1652C10.0925 3.06197 10.3569 3.01036 10.6379 3.01036H15.3686C15.648 3.01036 15.911 3.06197 16.1575 3.1652C16.404 3.26844 16.6103 3.43015 16.7764 3.65034L18.2659 5.43784H22.15C22.6321 5.43784 23.0612 5.62595 23.4374 6.00218C23.8136 6.37838 24.0017 6.8075 24.0017 7.28953V21.0667C24.0017 21.565 23.8136 21.9971 23.4374 22.3631C23.0612 22.729 22.6321 22.9119 22.15 22.9119H3.84995ZM22.15 21.0667V7.28953H3.84995V21.0667H22.15Z" fill="#5F5AC9"/>
</svg>
