<svg width="30" height="30" viewBox="0 0 30 30" fill="none" xmlns="http://www.w3.org/2000/svg">
<path d="M14.3751 27.7092C12.4209 27.7092 10.7517 27.0369 9.36733 25.6922C7.983 24.3475 7.29083 22.7001 7.29083 20.75L7.29083 7.23031C7.29083 5.85754 7.78059 4.68238 8.76011 3.70481C9.73963 2.72723 10.9194 2.23844 12.2995 2.23844C13.7016 2.23844 14.8881 2.72475 15.8587 3.69737C16.8293 4.67 17.3146 5.85806 17.3146 7.26156V17.7364H15.8927V7.23031C15.8927 6.23281 15.546 5.38969 14.8525 4.70094C14.159 4.01219 13.31 3.66781 12.3056 3.66781C11.3012 3.66781 10.45 4.01219 9.75211 4.70094C9.0542 5.38969 8.70524 6.23281 8.70524 7.23031V20.8099C8.70524 22.3473 9.25954 23.6458 10.3681 24.7054C11.4767 25.765 12.8124 26.2948 14.3751 26.2948C15.1431 26.2948 15.8634 26.1538 16.5357 25.8716C17.2081 25.5894 17.7997 25.2004 18.3106 24.7045V26.464C17.7422 26.8607 17.1306 27.1675 16.476 27.3842C15.8213 27.6009 15.121 27.7092 14.3751 27.7092ZM20.1856 22.3145H17.5001C17.1996 22.3145 16.947 22.2117 16.7424 22.0061C16.5378 21.8004 16.4356 21.5466 16.4356 21.2445C16.4356 20.9425 16.5378 20.6904 16.7424 20.4884C16.947 20.2865 17.1996 20.1855 17.5001 20.1855H20.1856V17.5C20.1856 17.1995 20.2884 16.9469 20.494 16.7423C20.6997 16.5378 20.9535 16.4355 21.2556 16.4355C21.5576 16.4355 21.8096 16.5378 22.0116 16.7423C22.2136 16.9469 22.3146 17.1995 22.3146 17.5V20.1855H25.0001C25.3006 20.1855 25.5531 20.2883 25.7577 20.4939C25.9623 20.6996 26.0646 20.9534 26.0646 21.2555C26.0646 21.5575 25.9623 21.8096 25.7577 22.0116C25.5531 22.2135 25.3006 22.3145 25.0001 22.3145H22.3146V25C22.3146 25.3005 22.2118 25.5531 22.0061 25.7577C21.8005 25.9622 21.5467 26.0645 21.2446 26.0645C20.9426 26.0645 20.6905 25.9622 20.4885 25.7577C20.2865 25.5531 20.1856 25.3005 20.1856 25V22.3145ZM14.3751 21.1678V22.5822C13.5436 22.5822 12.8458 22.2741 12.2817 21.6579C11.7176 21.0418 11.4356 20.3075 11.4356 19.4552V7.875C11.4356 7.68094 11.5068 7.51455 11.6492 7.37584C11.7916 7.23716 11.9586 7.16781 12.1502 7.16781C12.3418 7.16781 12.5076 7.23716 12.6475 7.37584C12.7874 7.51455 12.8574 7.68094 12.8574 7.875V19.5489C12.8574 19.9967 13.0029 20.3784 13.2937 20.6942C13.5846 21.0099 13.9451 21.1678 14.3751 21.1678ZM20.0449 13.8438V7.875C20.0449 7.68342 20.1143 7.51766 20.253 7.37772C20.3917 7.23778 20.5575 7.16781 20.7506 7.16781C20.9436 7.16781 21.1112 7.23716 21.2535 7.37584C21.3957 7.51455 21.4668 7.68094 21.4668 7.875V13.8438H20.0449Z" fill="#5F5AC9"/>
</svg>
