<svg width="20" height="26" viewBox="0 0 20 26" fill="none" xmlns="http://www.w3.org/2000/svg">
<path d="M7.37508 25.7092C5.42092 25.7092 3.75167 25.0369 2.36733 23.6922C0.983 22.3475 0.290833 20.7001 0.290833 18.75L0.290833 5.23031C0.290833 3.85754 0.780593 2.68238 1.76011 1.70481C2.73963 0.72723 3.91942 0.238438 5.29946 0.238438C6.70164 0.238438 7.88805 0.724749 8.85868 1.69737C9.8293 2.67 10.3146 3.85806 10.3146 5.26156V15.7364H8.89274V5.23031C8.89274 4.23281 8.54598 3.38969 7.85246 2.70094C7.15896 2.01219 6.31 1.66781 5.30558 1.66781C4.30119 1.66781 3.45003 2.01219 2.75211 2.70094C2.0542 3.38969 1.70524 4.23281 1.70524 5.23031L1.70524 18.8099C1.70524 20.3473 2.25954 21.6458 3.36815 22.7054C4.47675 23.765 5.8124 24.2948 7.37508 24.2948C8.14315 24.2948 8.86335 24.1538 9.53571 23.8716C10.2081 23.5894 10.7997 23.2004 11.3106 22.7045V24.464C10.7422 24.8607 10.1306 25.1675 9.47596 25.3842C8.82129 25.6009 8.121 25.7092 7.37508 25.7092ZM13.1856 20.3145H10.5001C10.1996 20.3145 9.94703 20.2117 9.74243 20.0061C9.53784 19.8004 9.43555 19.5466 9.43555 19.2445C9.43555 18.9425 9.53784 18.6904 9.74243 18.4884C9.94703 18.2865 10.1996 18.1855 10.5001 18.1855H13.1856V15.5C13.1856 15.1995 13.2884 14.9469 13.494 14.7423C13.6997 14.5378 13.9535 14.4355 14.2556 14.4355C14.5576 14.4355 14.8096 14.5378 15.0116 14.7423C15.2136 14.9469 15.3146 15.1995 15.3146 15.5V18.1855H18.0001C18.3006 18.1855 18.5531 18.2883 18.7577 18.4939C18.9623 18.6996 19.0646 18.9534 19.0646 19.2555C19.0646 19.5575 18.9623 19.8096 18.7577 20.0116C18.5531 20.2135 18.3006 20.3145 18.0001 20.3145H15.3146V23C15.3146 23.3005 15.2118 23.5531 15.0061 23.7577C14.8005 23.9622 14.5467 24.0645 14.2446 24.0645C13.9426 24.0645 13.6905 23.9622 13.4885 23.7577C13.2865 23.5531 13.1856 23.3005 13.1856 23V20.3145ZM7.37508 19.1678V20.5822C6.54356 20.5822 5.84576 20.2741 5.28168 19.6579C4.71759 19.0418 4.43555 18.3075 4.43555 17.4552L4.43555 5.875C4.43555 5.68094 4.50677 5.51455 4.64921 5.37584C4.79165 5.23716 4.95864 5.16781 5.15021 5.16781C5.34179 5.16781 5.50755 5.23716 5.64749 5.37584C5.78745 5.51455 5.85743 5.68094 5.85743 5.875L5.85743 17.5489C5.85743 17.9967 6.00286 18.3784 6.29374 18.6942C6.58463 19.0099 6.94508 19.1678 7.37508 19.1678ZM13.0449 11.8438V5.875C13.0449 5.68342 13.1143 5.51766 13.253 5.37772C13.3917 5.23778 13.5575 5.16781 13.7506 5.16781C13.9436 5.16781 14.1112 5.23716 14.2535 5.37584C14.3957 5.51455 14.4668 5.68094 14.4668 5.875V11.8438H13.0449Z" fill="#5F5AC9"/>
</svg>
