<svg width="26" height="26" viewBox="0 0 26 26" fill="none" xmlns="http://www.w3.org/2000/svg">
<path d="M9.49097 19.2421H16.5155C16.7549 19.2421 16.9556 19.1601 17.1175 18.9962C17.2795 18.8322 17.3604 18.6291 17.3604 18.3867C17.3604 18.1461 17.2795 17.9459 17.1175 17.7859C16.9556 17.6259 16.7549 17.5459 16.5155 17.5459H9.48449C9.24511 17.5459 9.04445 17.6272 8.88251 17.79C8.72057 17.9527 8.6396 18.1544 8.6396 18.3949C8.6396 18.6355 8.72119 18.8369 8.88438 18.999C9.04755 19.1611 9.24974 19.2421 9.49097 19.2421ZM9.49097 14.6379H16.5155C16.7549 14.6379 16.9556 14.556 17.1175 14.392C17.2795 14.2281 17.3604 14.0249 17.3604 13.7825C17.3604 13.542 17.2795 13.3417 17.1175 13.1817C16.9556 13.0217 16.7549 12.9417 16.5155 12.9417H9.48449C9.24511 12.9417 9.04445 13.0231 8.88251 13.1858C8.72057 13.3486 8.6396 13.5502 8.6396 13.7908C8.6396 14.0314 8.72119 14.2327 8.88438 14.3948C9.04755 14.5569 9.24974 14.6379 9.49097 14.6379ZM6.01663 23.9952C5.51832 23.9952 5.08621 23.8123 4.72029 23.4464C4.3544 23.0805 4.17145 22.6484 4.17145 22.15V3.84995C4.17145 3.34986 4.3544 2.91623 4.72029 2.54906C5.08621 2.18186 5.51832 1.99826 6.01663 1.99826H15.0324C15.2878 1.99826 15.5313 2.04988 15.7627 2.15312C15.9942 2.25635 16.1929 2.39098 16.3589 2.55702L21.2763 7.4744C21.4424 7.64044 21.577 7.83919 21.6802 8.07064C21.7835 8.3021 21.8351 8.54552 21.8351 8.80092V22.15C21.8351 22.6484 21.6515 23.0805 21.2843 23.4464C20.9171 23.8123 20.4835 23.9952 19.9834 23.9952H6.01663ZM14.8647 7.96485V3.84995H6.01663V22.15H19.9834V8.88745H15.7872C15.5268 8.88745 15.3079 8.79879 15.1306 8.62149C14.9533 8.44417 14.8647 8.22529 14.8647 7.96485Z" fill="black"/>
</svg>
