<svg width="25" height="25" viewBox="0 0 25 25" fill="none" xmlns="http://www.w3.org/2000/svg">
<path d="M5.7852 23.0599C5.29729 23.0599 4.87961 22.8862 4.53216 22.5387C4.18471 22.1913 4.01099 21.7736 4.01099 21.2857V10.0957C4.01099 9.60605 4.18471 9.1869 4.53216 8.83823C4.87961 8.48955 5.29729 8.31521 5.7852 8.31521H7.48359V5.95222C7.48359 4.55698 7.972 3.36898 8.94882 2.38823C9.92567 1.40749 11.1098 0.917114 12.5013 0.917114C13.8927 0.917114 15.0764 1.40749 16.0524 2.38823C17.0284 3.36898 17.5164 4.55698 17.5164 5.95222V8.31521H19.2148C19.7044 8.31521 20.1236 8.48955 20.4722 8.83823C20.8209 9.1869 20.9953 9.60605 20.9953 10.0957V21.2857C20.9953 21.7736 20.8209 22.1913 20.4722 22.5387C20.1236 22.8862 19.7044 23.0599 19.2148 23.0599H5.7852ZM5.7852 21.2857H19.2148V10.0957H5.7852V21.2857ZM12.5044 17.6959C13.057 17.6959 13.5286 17.5046 13.9193 17.1221C14.3099 16.7397 14.5052 16.2799 14.5052 15.7428C14.5052 15.2219 14.3084 14.7488 13.9149 14.3235C13.5213 13.8981 13.0483 13.6855 12.4956 13.6855C11.943 13.6855 11.4714 13.8981 11.0807 14.3235C10.6901 14.7488 10.4948 15.2263 10.4948 15.7558C10.4948 16.2853 10.6916 16.741 11.0851 17.123C11.4786 17.5049 11.9517 17.6959 12.5044 17.6959ZM9.25781 8.31521H15.7422V5.95365C15.7422 5.04414 15.4284 4.27408 14.8007 3.64347C14.1731 3.01288 13.4077 2.69758 12.5045 2.69758C11.6014 2.69758 10.8345 3.01288 10.2038 3.64347C9.57314 4.27408 9.25781 5.04414 9.25781 5.95365V8.31521Z" fill="#5F5AC9"/>
</svg>
