<svg width="26" height="26" viewBox="0 0 26 26" fill="none" xmlns="http://www.w3.org/2000/svg">
<path d="M1.3125 22.8458C1.01146 22.8458 0.759115 22.7434 0.555469 22.5386C0.351823 22.3337 0.25 22.0799 0.25 21.7771C0.25 21.4743 0.351823 21.2226 0.555469 21.0219C0.759115 20.8212 1.01146 20.7208 1.3125 20.7208H7.93542C8.23646 20.7208 8.4888 20.8232 8.69245 21.0281C8.89609 21.2329 8.99792 21.4867 8.99792 21.7895C8.99792 22.0923 8.89609 22.3441 8.69245 22.5448C8.4888 22.7455 8.23646 22.8458 7.93542 22.8458H1.3125ZM1.3125 5.27917C1.01146 5.27917 0.759115 5.17675 0.555469 4.97193C0.351823 4.76708 0.25 4.51326 0.25 4.21047C0.25 3.90766 0.351823 3.6559 0.555469 3.45521C0.759115 3.25451 1.01146 3.15417 1.3125 3.15417H13.8146C14.1156 3.15417 14.368 3.25658 14.5716 3.46141C14.7753 3.66626 14.8771 3.92008 14.8771 4.22286C14.8771 4.52568 14.7753 4.77743 14.5716 4.97813C14.368 5.17882 14.1156 5.27917 13.8146 5.27917H1.3125ZM12.1792 25.75C11.8764 25.75 11.6247 25.6482 11.424 25.4445C11.2233 25.2409 11.1229 24.9885 11.1229 24.6875V18.8438C11.1229 18.5427 11.2253 18.2904 11.4302 18.0867C11.635 17.8831 11.8888 17.7812 12.1916 17.7812C12.4944 17.7812 12.7462 17.8831 12.9469 18.0867C13.1476 18.2904 13.2479 18.5427 13.2479 18.8438V20.7208H24.6875C24.9885 20.7208 25.2409 20.8232 25.4445 21.0281C25.6482 21.2329 25.75 21.4867 25.75 21.7895C25.75 22.0923 25.6482 22.3441 25.4445 22.5448C25.2409 22.7455 24.9885 22.8458 24.6875 22.8458H13.2479V24.6875C13.2479 24.9885 13.1455 25.2409 12.9407 25.4445C12.7358 25.6482 12.482 25.75 12.1792 25.75ZM7.92922 16.9667C7.62641 16.9667 7.37465 16.8648 7.17396 16.6612C6.97326 16.4576 6.87292 16.2052 6.87292 15.9042V14.0625H1.3125C1.01146 14.0625 0.759115 13.9601 0.555469 13.7553C0.351823 13.5504 0.25 13.2966 0.25 12.9938C0.25 12.691 0.351823 12.4392 0.555469 12.2385C0.759115 12.0378 1.01146 11.9375 1.3125 11.9375H6.87292V10.025C6.87292 9.72396 6.97533 9.47161 7.18016 9.26797C7.38501 9.06432 7.63883 8.9625 7.94161 8.9625C8.24443 8.9625 8.49618 9.06432 8.69687 9.26797C8.89757 9.47161 8.99792 9.72396 8.99792 10.025V15.9042C8.99792 16.2052 8.8955 16.4576 8.69068 16.6612C8.48583 16.8648 8.23201 16.9667 7.92922 16.9667ZM12.1854 14.0625C11.8844 14.0625 11.632 13.9601 11.4284 13.7553C11.2247 13.5504 11.1229 13.2966 11.1229 12.9938C11.1229 12.691 11.2247 12.4392 11.4284 12.2385C11.632 12.0378 11.8844 11.9375 12.1854 11.9375H24.6875C24.9885 11.9375 25.2409 12.0399 25.4445 12.2447C25.6482 12.4496 25.75 12.7034 25.75 13.0062C25.75 13.309 25.6482 13.5608 25.4445 13.7615C25.2409 13.9622 24.9885 14.0625 24.6875 14.0625H12.1854ZM18.0584 8.21875C17.7556 8.21875 17.5038 8.11693 17.3031 7.91328C17.1024 7.70964 17.0021 7.45729 17.0021 7.15625V1.3125C17.0021 1.01146 17.1045 0.759115 17.3093 0.555469C17.5142 0.351823 17.768 0.25 18.0708 0.25C18.3736 0.25 18.6253 0.351823 18.826 0.555469C19.0267 0.759115 19.1271 1.01146 19.1271 1.3125V3.15417H24.6875C24.9885 3.15417 25.2409 3.25658 25.4445 3.46141C25.6482 3.66626 25.75 3.92008 25.75 4.22286C25.75 4.52568 25.6482 4.77743 25.4445 4.97813C25.2409 5.17882 24.9885 5.27917 24.6875 5.27917H19.1271V7.15625C19.1271 7.45729 19.0247 7.70964 18.8198 7.91328C18.615 8.11693 18.3612 8.21875 18.0584 8.21875Z" fill="white"/>
</svg>
