<svg width="24" height="24" viewBox="0 0 24 24" fill="none" xmlns="http://www.w3.org/2000/svg">
<g opacity="0.5">
<path d="M11.9707 15.4804C11.729 15.4804 11.5274 15.3986 11.3658 15.2349C11.2042 15.0712 11.1234 14.8692 11.1234 14.6288V4.1511L9.51415 5.76032C9.35474 5.91359 9.15845 5.98922 8.9253 5.98722C8.69215 5.98524 8.48952 5.9002 8.3174 5.73212C8.15364 5.56404 8.07175 5.36095 8.07175 5.12287C8.07175 4.88479 8.15672 4.68079 8.32665 4.51087L11.3783 1.45925C11.4696 1.36395 11.5654 1.29764 11.6657 1.26032C11.766 1.223 11.8691 1.20435 11.975 1.20435C12.0809 1.20435 12.1841 1.223 12.2844 1.26032C12.3847 1.29764 12.4805 1.36395 12.5718 1.45925L15.6544 4.54185C15.8076 4.69511 15.8874 4.88886 15.8938 5.1231C15.9001 5.35733 15.8188 5.55941 15.6499 5.72935C15.481 5.89928 15.2779 5.98425 15.0407 5.98425C14.8034 5.98425 14.5998 5.89928 14.4299 5.72935L12.8267 4.1511V14.6288C12.8267 14.8692 12.7444 15.0712 12.5799 15.2349C12.4154 15.3986 12.2123 15.4804 11.9707 15.4804ZM5.62558 23.1375C5.16559 23.1375 4.76672 22.9686 4.42895 22.6308C4.09119 22.2931 3.9223 21.8942 3.9223 21.4342V9.09185C3.9223 8.63186 4.09119 8.23299 4.42895 7.89522C4.76672 7.55747 5.16559 7.3886 5.62558 7.3886H8.82558C9.06598 7.3886 9.25904 7.47085 9.40478 7.63537C9.55053 7.79989 9.6234 8.00296 9.6234 8.2446C9.6234 8.48625 9.55053 8.68787 9.40478 8.84947C9.25904 9.01105 9.06598 9.09185 8.82558 9.09185H5.62558V21.4342H18.3745V9.09185H15.1305C14.8855 9.09185 14.6903 9.00959 14.5448 8.84507C14.3994 8.68055 14.3267 8.47747 14.3267 8.23582C14.3267 7.99419 14.3994 7.79257 14.5448 7.63097C14.6903 7.46939 14.8855 7.3886 15.1305 7.3886H18.3745C18.8361 7.3886 19.2364 7.55747 19.5753 7.89522C19.9143 8.23299 20.0837 8.63186 20.0837 9.09185V21.4342C20.0837 21.8942 19.9143 22.2931 19.5753 22.6308C19.2364 22.9686 18.8361 23.1375 18.3745 23.1375H5.62558Z" fill="white"/>
</g>
</svg>
