<svg width="32" height="32" viewBox="0 0 32 32" fill="none" xmlns="http://www.w3.org/2000/svg">
<path d="M18.8036 28.2181C17.6331 28.2181 16.6525 27.8064 15.862 26.983C15.0714 26.1595 14.6761 25.0879 14.6761 23.7681C14.6761 22.6411 14.9452 21.6722 15.4833 20.8616C16.0215 20.051 16.6834 19.379 17.4692 18.8457C18.2549 18.3123 19.0841 17.9081 19.9565 17.633C20.829 17.3579 21.5995 17.1923 22.2681 17.1362C22.2068 15.9227 21.9438 15.0488 21.4793 14.5145C21.0148 13.9802 20.3572 13.713 19.5065 13.713C18.6399 13.713 17.8287 13.9728 17.0732 14.4924C16.3176 15.012 15.3065 16.1437 14.0399 17.8877C12.6824 19.7278 11.5572 20.9807 10.6645 21.6464C9.77173 22.3121 8.80095 22.6449 7.75215 22.6449C6.7594 22.6449 5.85529 22.3121 5.03985 21.6464C4.22438 20.9807 3.81665 19.8461 3.81665 18.2428C3.81665 17.5582 4.06266 16.6668 4.55468 15.5685C5.04671 14.4702 5.89321 12.956 7.09418 11.0261C7.74105 10.1019 8.19492 9.36341 8.45578 8.8105C8.71665 8.25761 8.84708 7.78962 8.84708 7.40653C8.84708 7.16209 8.77908 6.96764 8.64308 6.8232C8.50711 6.67875 8.30578 6.60653 8.03912 6.60653C7.84974 6.60653 7.63814 6.6581 7.40432 6.76123C7.17052 6.86436 6.91714 7.03019 6.64418 7.2587C6.35723 7.49154 6.04756 7.60664 5.71518 7.604C5.38283 7.60133 5.10023 7.47246 4.86738 7.2174C4.60167 6.96231 4.46882 6.66038 4.46882 6.3116C4.46882 5.9628 4.60167 5.66932 4.86738 5.43116C5.38381 4.96981 5.90819 4.62403 6.44055 4.39383C6.97293 4.16363 7.51907 4.04853 8.07898 4.04853C9.04949 4.04853 9.84248 4.37426 10.458 5.02573C11.0734 5.67717 11.3812 6.47753 11.3812 7.4268C11.3812 8.25773 11.1716 9.07536 10.7525 9.8797C10.3334 10.6841 9.66351 11.7826 8.74275 13.1754C7.73211 14.6696 7.08211 15.747 6.79275 16.4076C6.50337 17.0682 6.35868 17.7329 6.35868 18.4014C6.35868 19.086 6.54068 19.5341 6.90468 19.7457C7.26871 19.9572 7.64806 20.063 8.04275 20.063C8.57608 20.063 9.11654 19.8101 9.66412 19.3043C10.2117 18.7986 11.0367 17.8167 12.1391 16.3587C13.6609 14.3819 14.9906 13.0204 16.1283 12.2743C17.2659 11.5281 18.492 11.1551 19.8065 11.1551C21.2572 11.1551 22.4261 11.6847 23.313 12.7438C24.2 13.803 24.7043 15.2312 24.8261 17.0283H26.929C27.2667 17.0283 27.5601 17.1529 27.8094 17.4022C28.0587 17.6515 28.1833 17.9449 28.1833 18.2826C28.1833 18.6425 28.0587 18.9471 27.8094 19.1964C27.5601 19.4457 27.2667 19.5703 26.929 19.5703H24.8261C24.5932 23.1423 23.796 25.4766 22.4344 26.5732C21.0728 27.6698 19.8626 28.2181 18.8036 28.2181ZM18.9036 25.6522C19.5287 25.6522 20.2251 25.2383 20.9928 24.4105C21.7604 23.5827 22.2077 21.9995 22.3348 19.6609C21.315 19.7614 20.2086 20.1792 19.0156 20.9145C17.8226 21.6498 17.2261 22.6841 17.2261 24.0174C17.2261 24.5179 17.3708 24.9154 17.6601 25.2101C17.9495 25.5048 18.364 25.6522 18.9036 25.6522Z" fill="#5F5AC9"/>
</svg>
