<svg width="23" height="14" viewBox="0 0 23 14" fill="none" xmlns="http://www.w3.org/2000/svg">
<path d="M6.63859 2.16647C6.33809 2.16647 6.08554 2.06365 5.88094 1.858C5.67633 1.65234 5.57403 1.39723 5.57403 1.09269C5.57403 0.788146 5.67633 0.534886 5.88094 0.332907C6.08554 0.130907 6.33809 0.0299072 6.63859 0.0299072H21.8091C22.1096 0.0299072 22.3621 0.132729 22.5667 0.338375C22.7713 0.544021 22.8736 0.799115 22.8736 1.10366C22.8736 1.4082 22.7713 1.66147 22.5667 1.86347C22.3621 2.06547 22.1096 2.16647 21.8091 2.16647H6.63859ZM6.63859 7.73303C6.33809 7.73303 6.08554 7.63021 5.88094 7.42456C5.67633 7.21892 5.57403 6.96507 5.57403 6.66303C5.57403 6.36097 5.67633 6.10894 5.88094 5.90694C6.08554 5.70496 6.33809 5.60397 6.63859 5.60397H21.8091C22.1096 5.60397 22.3621 5.70679 22.5667 5.91244C22.7713 6.11808 22.8736 6.37193 22.8736 6.67397C22.8736 6.97603 22.7713 7.22806 22.5667 7.43006C22.3621 7.63204 22.1096 7.73303 21.8091 7.73303H6.63859ZM6.63859 13.3071C6.33809 13.3071 6.08554 13.2043 5.88094 12.9986C5.67633 12.793 5.57403 12.5379 5.57403 12.2333C5.57403 11.9288 5.67633 11.6755 5.88094 11.4735C6.08554 11.2715 6.33809 11.1705 6.63859 11.1705H21.8091C22.1096 11.1705 22.3621 11.2734 22.5667 11.479C22.7713 11.6847 22.8736 11.9398 22.8736 12.2443C22.8736 12.5489 22.7713 12.8021 22.5667 13.0041C22.3621 13.2061 22.1096 13.3071 21.8091 13.3071H6.63859ZM1.09131 2.18888C0.782687 2.18888 0.523646 2.08356 0.314187 1.87294C0.104729 1.66231 0 1.40223 0 1.09269C0 0.783167 0.106552 0.523679 0.319656 0.31422C0.532781 0.104741 0.793646 0 1.10225 0C1.41088 0 1.66912 0.106533 1.877 0.319595C2.0849 0.532658 2.18884 0.792773 2.18884 1.09994C2.18884 1.41194 2.08307 1.67143 1.87153 1.87841C1.65999 2.08539 1.39992 2.18888 1.09131 2.18888ZM1.09131 7.76294C0.782687 7.76294 0.523646 7.65642 0.314187 7.44338C0.104729 7.23035 0 6.97028 0 6.66316C0 6.35603 0.106552 6.09774 0.319656 5.88828C0.532781 5.6788 0.793646 5.57406 1.10225 5.57406C1.41088 5.57406 1.66912 5.68058 1.877 5.89363C2.0849 6.10665 2.18884 6.36672 2.18884 6.67384C2.18884 6.98097 2.08307 7.23926 1.87153 7.44872C1.65999 7.6582 1.39992 7.76294 1.09131 7.76294ZM1.09131 13.3295C0.782687 13.3295 0.523646 13.2242 0.314187 13.0136C0.104729 12.8029 0 12.5429 0 12.2333C0 11.9238 0.106552 11.6643 0.319656 11.4548C0.532781 11.2454 0.793646 11.1407 1.10225 11.1407C1.41088 11.1407 1.66912 11.2472 1.877 11.4603C2.0849 11.6733 2.18884 11.9334 2.18884 12.2406C2.18884 12.5526 2.08307 12.8121 1.87153 13.0191C1.65999 13.226 1.39992 13.3295 1.09131 13.3295Z" fill="white"/>
</svg>
